<svg width="120" height="33" viewBox="0 0 120 33" fill="none" xmlns="http://www.w3.org/2000/svg">
<g clip-path="url(#clip0_6163_797)">
<path d="M28.2165 5.44504C28.2165 5.44504 28.5267 6.01502 27.8639 6.84284C27.2292 7.62994 24.8599 9.462 22.6175 11.0362C22.406 11.1855 22.3073 11.4433 22.3919 11.6876L24.4932 18.7852C24.5638 19.0023 24.4509 19.2466 24.2394 19.3551L23.774 19.5723C23.6612 19.6266 23.5342 19.5994 23.4496 19.5044L18.6686 14.1168L12.0543 17.5909L12.5902 20.0201C12.6043 20.1015 12.562 20.183 12.4915 20.2237L12.0261 20.4544C11.9556 20.4815 11.8709 20.4815 11.8145 20.4272L9.55803 18.5952L8.61312 18.853C8.5285 18.8802 8.42978 18.8394 8.38747 18.7716C8.34516 18.7037 8.34516 18.6359 8.37336 18.568L8.71184 17.9845L4.50911 16.2067C4.45269 16.1796 4.45269 16.0981 4.50911 16.0846L4.72065 15.9896C5.01682 15.8674 5.34119 15.8131 5.65146 15.8539L8.50029 16.1931L7.90796 15.0803C7.80924 14.8903 7.87975 14.6732 8.06309 14.5511L8.48619 14.2932C8.59901 14.2254 8.72594 14.2118 8.85287 14.2525L11.5607 15.1482L14.889 12.8004L4.69245 8.32205C4.55142 8.2542 4.53731 8.07778 4.66424 7.98278L4.96041 7.77922C5.20016 7.61637 5.51043 7.54852 5.80659 7.6028L18.6404 9.81485C18.9225 9.86913 19.2187 9.80127 19.4584 9.63842L24.324 6.24572C24.9445 5.81145 25.6497 5.47218 26.3831 5.28219C27.0741 5.10577 27.8498 5.03792 28.2165 5.44504Z" fill="white"/>
<path d="M8.23243 11.742C8.23243 11.5385 8.24654 11.3485 8.26064 11.1449L5.15795 9.78784C5.04512 10.4257 4.97461 11.0771 4.97461 11.742C4.97461 12.8413 5.14385 13.8998 5.45412 14.8905C5.60925 14.8769 5.77849 14.8905 5.93362 14.904L6.87853 15.0126C6.87853 14.5241 7.13239 14.0355 7.59779 13.7505L8.02089 13.4927C8.13371 13.4248 8.26064 13.3705 8.40167 13.3298C8.30295 12.8277 8.23243 12.2849 8.23243 11.742Z" fill="#FC5056"/>
<path d="M27.6246 8.83789C26.7361 9.59786 25.6219 10.4257 24.7334 11.0771C24.7475 11.2942 24.7616 11.5113 24.7616 11.742C24.7616 12.5834 24.6206 13.3977 24.3809 14.1577L25.6925 18.5546L26.172 17.7811C27.3425 16.044 28.0195 13.9677 28.0195 11.7556C28.0195 10.7378 27.8784 9.77428 27.6246 8.83789Z" fill="#FC5056"/>
<path d="M31.996 0.274658L24.3521 3.5588C21.6443 1.41461 19.3173 0.654641 16.5108 0.654641C12.0401 0.654641 8.16173 3.09739 6.25781 6.68009L9.67077 7.26363C11.1516 5.16015 13.662 3.77593 16.5108 3.77593C18.9083 3.77593 21.0661 4.7666 22.5751 6.32724L24.8457 4.8616C24.8457 4.8616 24.8457 4.8616 24.8598 4.8616L25.3111 4.57661L31.996 0.274658Z" fill="#FC5056"/>
<path d="M22.7303 20.3187L21.0239 18.3916C19.7264 19.2059 18.175 19.6808 16.5109 19.6808C15.5095 19.6808 14.5505 19.5044 13.6761 19.2059L13.8313 19.9251C13.9582 20.4815 13.662 21.0651 13.1261 21.3093L12.6607 21.54C12.4774 21.635 12.2658 21.6757 12.0684 21.6757C11.7581 21.6757 11.4619 21.5672 11.2222 21.3772L9.44519 19.9387L9.43109 19.9115L-0.00390625 25.9777L9.4875 21.8522L15.5659 31.7453C15.989 32.4238 17.0186 32.4374 17.4417 31.7453L24.3522 20.6579C23.8022 20.9158 23.1393 20.7801 22.7303 20.3187Z" fill="#FC5056"/>
<path d="M8.71179 19.5044L3.12695 23.1007L8.34511 19.3416L8.71179 19.5044Z" fill="#FC5056"/>
</g>
<path d="M51.8014 9.73866H45.8974L43.5214 23.2747H39.1774L41.5534 9.73866H35.6254L36.2974 5.99466H52.4734L51.8014 9.73866ZM63.1123 14.1787C63.1123 14.7227 63.0163 15.2507 62.8243 15.7627C62.6483 16.2747 62.4723 16.6507 62.2963 16.8907L62.0323 17.2267H58.4083C58.8083 16.8587 59.0083 16.4027 59.0083 15.8587C59.0083 15.5707 58.9123 15.3387 58.7203 15.1627C58.5443 14.9707 58.2963 14.8747 57.9763 14.8747C57.4323 14.8747 56.9603 15.1467 56.5603 15.6907L55.2163 23.2747H51.1363L53.1763 11.7307H56.9683L56.6803 13.3387C57.5923 12.0427 58.6963 11.3947 59.9923 11.3947C61.0323 11.3947 61.8083 11.6427 62.3203 12.1387C62.8483 12.6347 63.1123 13.3147 63.1123 14.1787ZM68.8645 20.2027C69.2325 20.2027 69.5605 20.1227 69.8485 19.9627L69.7285 22.6747C68.9765 23.2987 68.1205 23.6107 67.1605 23.6107C65.7045 23.6107 64.7605 23.2747 64.3285 22.6027C64.0405 22.1547 63.8965 21.6827 63.8965 21.1867C63.8965 20.6747 63.9285 20.2267 63.9925 19.8427L65.4325 11.7307H69.5125L68.1685 19.2907C68.1525 19.3867 68.1445 19.4747 68.1445 19.5547C68.1445 19.9867 68.3845 20.2027 68.8645 20.2027ZM65.9125 7.81866C65.9125 6.79466 66.1365 6.05066 66.5845 5.58666C67.0485 5.10666 67.7605 4.86666 68.7205 4.86666C70.0645 4.86666 70.7365 5.45866 70.7365 6.64266C70.7365 7.65066 70.5045 8.38666 70.0405 8.85066C69.5925 9.31466 68.8805 9.54666 67.9045 9.54666C66.5765 9.54666 65.9125 8.97066 65.9125 7.81866ZM83.3239 14.2267C83.3239 14.7547 83.1639 15.2427 82.8439 15.6907H78.9079C79.0359 15.5947 79.0999 15.4347 79.0999 15.2107C79.0999 14.9867 78.9719 14.8107 78.7159 14.6827C78.4599 14.5387 78.1319 14.4667 77.7319 14.4667C76.5319 14.4667 75.9319 14.8347 75.9319 15.5707C75.9319 15.8587 76.1559 16.0667 76.6039 16.1947C77.0519 16.3227 77.5959 16.4267 78.2359 16.5067C78.8759 16.5867 79.5159 16.7067 80.1559 16.8667C80.7959 17.0107 81.3399 17.3067 81.7879 17.7547C82.2359 18.2027 82.4599 18.8027 82.4599 19.5547C82.4599 20.8827 81.9239 21.8907 80.8519 22.5787C79.7959 23.2667 78.2519 23.6107 76.2199 23.6107C74.1879 23.6107 72.7639 23.2827 71.9479 22.6267C71.3079 22.1147 70.9879 21.4107 70.9879 20.5147C70.9879 20.2587 71.0119 19.9947 71.0599 19.7227L75.0679 19.6747C75.0359 19.8987 75.1639 20.0987 75.4519 20.2747C75.7559 20.4347 76.1959 20.5147 76.7719 20.5147C77.3479 20.5147 77.7639 20.4587 78.0199 20.3467C78.2759 20.2187 78.4039 19.9867 78.4039 19.6507C78.4039 19.4267 78.1799 19.2747 77.7319 19.1947C77.2839 19.0987 76.7319 19.0187 76.0759 18.9547C75.4359 18.8907 74.7879 18.7867 74.1319 18.6427C73.4919 18.4987 72.9479 18.1947 72.4999 17.7307C72.0519 17.2667 71.8279 16.6587 71.8279 15.9067C71.8279 14.4507 72.3879 13.3307 73.5079 12.5467C74.6439 11.7627 76.2759 11.3707 78.4039 11.3707C81.6839 11.3707 83.3239 12.3227 83.3239 14.2267ZM91.6718 11.3947C93.3998 11.3947 94.7038 11.7707 95.5838 12.5227C96.2718 13.1147 96.6158 13.9387 96.6158 14.9947C96.6158 15.3467 96.5758 15.7307 96.4958 16.1467L95.9918 18.9547C95.6878 20.6507 94.9758 21.8507 93.8558 22.5547C92.7518 23.2587 91.2718 23.6107 89.4158 23.6107C87.5598 23.6107 86.1998 23.2587 85.3358 22.5547C84.6958 22.0267 84.3758 21.2347 84.3758 20.1787C84.3758 19.8107 84.4158 19.4027 84.4958 18.9547L84.9998 16.1467C85.5598 12.9787 87.7838 11.3947 91.6718 11.3947ZM92.3198 16.6267C92.3518 16.4667 92.3678 16.2667 92.3678 16.0267C92.3678 15.7707 92.2638 15.4907 92.0558 15.1867C91.8478 14.8827 91.4798 14.7307 90.9518 14.7307C90.4398 14.7307 90.0078 14.9067 89.6558 15.2587C89.3038 15.5947 89.0798 16.0507 88.9838 16.6267L88.6718 18.4267C88.6398 18.5867 88.6238 18.7947 88.6238 19.0507C88.6238 19.2907 88.7278 19.5547 88.9358 19.8427C89.1438 20.1307 89.5038 20.2747 90.0158 20.2747C90.5438 20.2747 90.9838 20.0987 91.3358 19.7467C91.6878 19.3787 91.9118 18.9387 92.0078 18.4267L92.3198 16.6267ZM108.603 23.6587C108.251 25.6907 107.443 27.2987 106.179 28.4827C104.931 29.6667 103.499 30.2587 101.883 30.2587C100.267 30.2587 99.0986 29.9627 98.3786 29.3707C97.6746 28.7787 97.3226 28.0027 97.3226 27.0427C97.3226 25.6347 98.2186 24.4107 100.011 23.3707C98.6506 22.9387 97.9706 21.9067 97.9706 20.2747C97.9706 19.8747 98.0106 19.4347 98.0906 18.9547L98.5706 16.1467C98.8266 14.7067 99.4186 13.5627 100.347 12.7147C101.275 11.8507 102.475 11.4187 103.947 11.4187C105.435 11.4187 106.451 11.7787 106.995 12.4987L107.139 11.7307H110.715L108.603 23.6587ZM102.267 18.4267C102.235 18.5707 102.219 18.7707 102.219 19.0267C102.219 19.2827 102.339 19.5387 102.579 19.7947C102.819 20.0347 103.219 20.1547 103.779 20.1547C104.355 20.1547 104.851 19.9307 105.267 19.4827L105.987 15.4507C105.763 15.0507 105.339 14.8507 104.715 14.8507C104.091 14.8507 103.603 15.0107 103.251 15.3307C102.899 15.6507 102.675 16.0827 102.579 16.6267L102.267 18.4267ZM102.435 26.8267C103.475 26.8267 104.155 25.8827 104.475 23.9947L104.715 22.6027C102.491 23.6427 101.379 24.6907 101.379 25.7467C101.379 26.0667 101.467 26.3227 101.643 26.5147C101.835 26.7227 102.099 26.8267 102.435 26.8267Z" fill="white"/>
<defs>
<clipPath id="clip0_6163_797">
<rect width="32" height="32" fill="white" transform="translate(0 0.274658)"/>
</clipPath>
</defs>
</svg>
